<svg width="34" height="34" viewBox="0 0 34 34" fill="none" xmlns="http://www.w3.org/2000/svg">
<path d="M15.5577 12.9839L2.12342 26.4818C1.76741 26.8354 1.48487 27.256 1.29207 27.7193C1.09926 28.1826 1 28.6794 1 29.1812C1 29.683 1.09926 30.1798 1.29207 30.6431C1.48487 31.1064 1.76741 31.527 2.12342 31.8806C2.84285 32.5962 3.8163 32.9979 4.83101 32.9979C5.84573 32.9979 6.81918 32.5962 7.5386 31.8806L14.2776 25.1617L15.9623 23.4819" stroke="#24E1BF" stroke-width="2" stroke-linecap="round" stroke-linejoin="round"/>
<path d="M18.287 15.713L11.3852 8.81122C11.044 8.47 10.8524 8.00725 10.8524 7.52476C10.8524 7.04226 11.044 6.57952 11.3852 6.23829L16.0907 1.53276C16.4319 1.19163 16.8947 1 17.3772 1C17.8597 1 18.3224 1.19163 18.6636 1.53276L32.4672 15.3364C32.8084 15.6776 33 16.1403 33 16.6228C33 17.1053 32.8084 17.5681 32.4672 17.9093L27.7617 22.6148C27.4205 22.956 26.9577 23.1476 26.4752 23.1476C25.9927 23.1476 25.53 22.956 25.1888 22.6148L23.4633 20.8894" stroke="#24E1BF" stroke-width="2" stroke-linecap="round" stroke-linejoin="round"/>
</svg>
