<svg width="35" height="34" viewBox="0 0 35 34" fill="none" xmlns="http://www.w3.org/2000/svg">
<path d="M33.4873 16.3423C33.5781 18.5523 33.2099 20.7571 32.4058 22.8176C31.6018 24.878 30.3795 26.7494 28.816 28.3134C27.2525 29.8774 25.3819 31.1002 23.3221 31.9045C21.2624 32.7088 19.0583 33.0772 16.8491 32.9863" stroke="#AD5EFD" stroke-width="2" stroke-linecap="round" stroke-linejoin="round"/>
<path d="M21.3937 20.8913L10.7704 31.5182C7.46343 29.9854 4.77893 27.3687 3.16141 24.1014C1.5439 20.834 1.09039 17.1121 1.87597 13.5517C2.66156 9.99141 4.63912 6.80624 7.48122 4.52362C10.3233 2.24101 13.8595 0.997857 17.5043 1C20.5545 0.999387 23.5413 1.87118 26.1126 3.5126C28.684 5.15401 30.7325 7.49663 32.0169 10.2643L26.7053 15.5778" stroke="#AD5EFD" stroke-width="2" stroke-linecap="round" stroke-linejoin="round"/>
</svg>
