<svg width="42" height="30" viewBox="0 0 42 30" fill="none" xmlns="http://www.w3.org/2000/svg">
<path d="M35.5548 2.48684C32.8778 1.33579 30.0072 0.487746 27.0058 0.00203748C26.9512 -0.00733654 26.8966 0.0160897 26.8684 0.0629432C26.4992 0.678276 26.0903 1.48103 25.8039 2.11199C22.5757 1.65908 19.3641 1.65908 16.2021 2.11199C15.9156 1.467 15.4918 0.678276 15.121 0.0629432C15.0928 0.0176529 15.0382 -0.00577328 14.9836 0.00203748C11.9838 0.486194 9.11323 1.33424 6.43464 2.48684C6.41145 2.4962 6.39157 2.51184 6.37838 2.53213C0.933435 10.1552 -0.558163 17.5909 0.173565 24.9344C0.176876 24.9703 0.198397 25.0047 0.228197 25.0265C3.82062 27.4988 7.30049 28.9997 10.7157 29.9945C10.7704 30.0102 10.8283 29.9914 10.8631 29.9492C11.671 28.9154 12.3911 27.8253 13.0086 26.6789C13.045 26.6117 13.0102 26.5321 12.9358 26.5055C11.7935 26.0995 10.7058 25.6044 9.65953 25.0422C9.57677 24.9969 9.57014 24.8859 9.64628 24.8328C9.86645 24.6782 10.0867 24.5173 10.2969 24.3549C10.335 24.3253 10.388 24.319 10.4327 24.3377C17.3062 27.2786 24.7477 27.2786 31.5402 24.3377C31.5849 24.3175 31.6379 24.3237 31.6776 24.3534C31.8879 24.5158 32.1081 24.6782 32.3299 24.8328C32.406 24.8859 32.401 24.9969 32.3183 25.0422C31.272 25.6153 30.1843 26.0995 29.0404 26.504C28.9659 26.5305 28.9328 26.6117 28.9692 26.6789C29.5999 27.8236 30.3201 28.9138 31.1131 29.9477C31.1462 29.9914 31.2058 30.0102 31.2604 29.9945C34.6922 28.9997 38.1721 27.4988 41.7645 25.0265C41.796 25.0047 41.8158 24.9719 41.8192 24.9359C42.6949 16.446 40.3524 9.07133 35.6094 2.53368C35.5978 2.51184 35.578 2.4962 35.5548 2.48684ZM14.035 20.463C11.9656 20.463 10.2605 18.6826 10.2605 16.496C10.2605 14.3095 11.9326 12.5291 14.035 12.5291C16.154 12.5291 17.8427 14.3252 17.8095 16.496C17.8095 18.6826 16.1375 20.463 14.035 20.463ZM27.9908 20.463C25.9215 20.463 24.2163 18.6826 24.2163 16.496C24.2163 14.3095 25.8883 12.5291 27.9908 12.5291C30.1099 12.5291 31.7984 14.3252 31.7654 16.496C31.7654 18.6826 30.1099 20.463 27.9908 20.463Z" fill="#EDF3FD"/>
</svg>
