<svg width="34" height="34" viewBox="0 0 34 34" fill="none" xmlns="http://www.w3.org/2000/svg">
<path d="M33 31.72V16.3594C32.9997 15.6805 32.7185 15.0296 32.2183 14.5497L18.885 1.74924C18.385 1.26949 17.7069 1 17 1C16.2931 1 15.615 1.26949 15.115 1.74924L11.7817 4.94936M21 23.3996V31.72C21 32.0594 21.1405 32.385 21.3905 32.6251C21.6406 32.8651 21.9797 33 22.3333 33H24.6667M13 23.3996V31.72C13 32.0594 12.8595 32.385 12.6095 32.6251C12.3594 32.8651 12.0203 33 11.6667 33H2.33333C1.97971 33 1.64057 32.8651 1.39052 32.6251C1.14048 32.385 1 32.0594 1 31.72V16.3594C1.00033 15.6805 1.28149 15.0296 1.78167 14.5497L5.115 11.3496" stroke="#6054FF" stroke-width="2" stroke-linecap="round"/>
</svg>
