<svg width="35" height="26" viewBox="0 0 35 26" fill="none" xmlns="http://www.w3.org/2000/svg">
<path d="M33.5 5C33.5 3.93913 33.0786 2.92172 32.3284 2.17157C31.5783 1.42143 30.5609 1 29.5 1H5.5C4.43913 1 3.42172 1.42143 2.67157 2.17157C1.92143 2.92172 1.5 3.93913 1.5 5V23C1.5 23.5304 1.71071 24.0391 2.08579 24.4142M8.91421 24.4142C9.28929 24.0391 9.5 23.5304 9.5 23V19C9.5 16.8783 10.3429 14.8434 11.8431 13.3431C13.3434 11.8429 15.3783 11 17.5 11C19.6217 11 21.6566 11.8429 23.1569 13.3431C24.6571 14.8434 25.5 16.8783 25.5 19V23C25.5 23.5304 25.7107 24.0391 26.0858 24.4142C26.4609 24.7893 26.9696 25 27.5 25H31.5C32.0304 25 32.5391 24.7893 32.9142 24.4142C33.2893 24.0391 33.5 23.5304 33.5 23V14" stroke="#FAFD5E" stroke-width="2" stroke-linecap="round" stroke-linejoin="round"/>
</svg>
