<svg width="34" height="34" viewBox="0 0 34 34" fill="none" xmlns="http://www.w3.org/2000/svg">
<path d="M27.6667 32.9992C29.0812 32.9992 30.4377 32.3249 31.4379 31.1247C32.4381 29.9245 33 28.2966 33 26.5992V13.799C33 12.1016 32.4381 10.4737 31.4379 9.27347C30.4377 8.07322 29.0812 7.39893 27.6667 7.39893H6.33333C4.91885 7.39893 3.56229 8.07322 2.5621 9.27347C1.5619 10.4737 1 12.1016 1 13.799V26.5992C1 28.2966 1.5619 29.9245 2.5621 31.1247C3.56229 32.3249 4.91885 32.9992 6.33333 32.9992H17" stroke="#FA902E" stroke-width="2" stroke-linecap="round" stroke-linejoin="round"/>
<path d="M17 1V7.40008" stroke="#FA902E" stroke-width="2" stroke-linecap="round" stroke-linejoin="round"/>
<path d="M11.6665 20.1997V20.2315" stroke="#FA902E" stroke-width="4" stroke-linecap="round" stroke-linejoin="round"/>
<path d="M22.3335 20.1997V20.2315" stroke="#FA902E" stroke-width="4" stroke-linecap="round" stroke-linejoin="round"/>
</svg>
