<svg width="35" height="30" viewBox="0 0 35 30" fill="none" xmlns="http://www.w3.org/2000/svg">
<path fill-rule="evenodd" clip-rule="evenodd" d="M2.40682 12.9138C11.8012 8.6806 18.0667 5.88904 21.2009 4.54183C30.1521 0.691958 32.0105 0.0225504 33.2217 0.000297046C33.4903 -0.00522861 34.0865 0.0641937 34.4706 0.389203C34.7285 0.619572 34.8934 0.941768 34.9325 1.29194C34.9978 1.72551 35.0158 2.1653 34.9862 2.60303C34.5001 7.87506 32.3999 20.6636 31.3337 26.569C30.8826 29.0661 29.9909 29.9022 29.1315 29.9856C27.6491 30.1244 26.4486 29.2411 25.1138 28.255C24.762 27.9967 24.4021 27.7328 24.0261 27.4773C22.5437 26.4717 21.3996 25.6662 20.2528 24.8579L20.1626 24.7945C19.1423 24.0764 18.1123 23.3517 16.834 22.4802C14.0947 20.6136 15.2388 19.4692 16.7696 17.947C17.0166 17.6998 17.2745 17.4415 17.5269 17.172C17.6397 17.0498 18.1903 16.5193 18.9691 15.7721C21.4667 13.3721 26.2848 8.73615 26.4083 8.20006C26.4271 8.1112 26.4459 7.78343 26.2579 7.61118C26.0699 7.43622 25.7906 7.4973 25.5892 7.54452C25.3045 7.61118 20.7738 10.7083 11.9972 16.8387C10.7108 17.7498 9.54522 18.1942 8.50051 18.172C7.35107 18.147 5.1381 17.4998 3.49181 16.947C3.31889 16.8874 3.14871 16.832 2.98227 16.7779C2.91607 16.7564 2.85045 16.735 2.78549 16.7137C1.11503 16.1721 -0.114994 15.7721 0.00854543 14.7554C0.0810578 14.1555 0.881378 13.5416 2.40682 12.9138Z" fill="#EDF3FD"/>
</svg>
