<svg width="34" height="38" viewBox="0 0 34 38" fill="none" xmlns="http://www.w3.org/2000/svg">
<path d="M9 4C9 5.85652 9.7375 7.63699 11.0503 8.94975C12.363 10.2625 14.1435 11 16 11H18C19.8565 11 21.637 10.2625 22.9497 8.94975C24.2625 7.63699 25 5.85652 25 4C25 3.20435 24.6839 2.44129 24.1213 1.87868C23.5587 1.31607 22.7956 1 22 1H17" stroke="#1FA95E" stroke-width="2" stroke-linecap="round" stroke-linejoin="round"/>
<path d="M33 27C33 22.7565 31.3143 18.6869 28.3137 15.6863C25.3131 12.6857 21.2435 11 17 11C12.7565 11 8.68687 12.6857 5.68629 15.6863C2.68571 18.6869 1 22.7565 1 27V29C1 31.1217 1.84285 33.1566 3.34315 34.6569C4.84344 36.1571 6.87827 37 9 37H25C27.1217 37 29.1566 36.1571 30.6569 34.6569" stroke="#1FA95E" stroke-width="2" stroke-linecap="round" stroke-linejoin="round"/>
</svg>
