<svg width="14" height="18" viewBox="0 0 14 18" fill="none" xmlns="http://www.w3.org/2000/svg">
<path d="M2.67306 13.9674C3.19548 13.4852 3.90404 13.2143 4.64286 13.2143H9.35714C10.096 13.2143 10.8045 13.4852 11.3269 13.9674C11.8494 14.4497 12.1429 15.1037 12.1429 15.7857V16.6429C12.1429 17.1162 12.5586 17.5 13.0714 17.5C13.5843 17.5 14 17.1162 14 16.6429V15.7857C14 14.6491 13.5108 13.559 12.6401 12.7553C11.7694 11.9515 10.5885 11.5 9.35714 11.5H4.64286C3.41149 11.5 2.23057 11.9515 1.35986 12.7553C0.489157 13.559 0 14.6491 0 15.7857V16.6429C0 17.1162 0.415736 17.5 0.928571 17.5C1.44141 17.5 1.85714 17.1162 1.85714 16.6429V15.7857C1.85714 15.1037 2.15064 14.4497 2.67306 13.9674Z" fill="#EDF3FD"/>
<path d="M4.17157 1.67157C4.92172 0.921427 5.93913 0.5 7 0.5C8.06087 0.5 9.07828 0.921427 9.82843 1.67157C10.5786 2.42172 11 3.43913 11 4.5C11 5.56087 10.5786 6.57828 9.82843 7.32843C9.07828 8.07857 8.06087 8.5 7 8.5C5.93913 8.5 4.92172 8.07857 4.17157 7.32843C3.42143 6.57828 3 5.56087 3 4.5C3 3.43913 3.42143 2.42172 4.17157 1.67157Z" fill="#EDF3FD"/>
</svg>
